<svg width="270" height="271" viewBox="0 0 270 271" fill="none" xmlns="http://www.w3.org/2000/svg">
<rect width="270" height="271" rx="17" fill="black"/>
<path d="M24 196C20.5873 218.39 24.9214 231.848 34.0319 248.449C34.8989 250.029 36.5683 251 38.3705 251H86.3167C88.8579 251 91.0008 249.076 91.268 246.549C94.2932 217.942 92.0489 211.979 83 191.5C74.4108 172.061 65.8216 164.884 60.5583 146.688C59.6564 143.57 56.1683 141.874 53.3972 143.563C33.4042 155.752 27.296 174.376 24 196Z" fill="#F71A9E"/>
<path d="M97.5 184.5C109.717 205.551 105.882 225.105 105.514 246.067C105.466 248.802 107.697 251 110.432 251H153.643C155.674 251 157.51 249.757 158.271 247.874C174.065 208.774 175.834 194.12 167.652 161.373C167.375 160.261 168.905 159.588 169.517 160.557C185.24 185.451 194.243 201.996 177.881 243.961C176.578 247.304 178.988 251 182.576 251H214.888C216.524 251 218.06 250.199 218.985 248.849C237.482 221.83 249.845 195.057 244 159.5C238.191 124.16 228.036 105.884 203.919 82.7897C202.463 81.3946 201.997 79.2759 202.485 77.3188C208.754 52.1857 182.598 19.918 161.5 18C139.5 16 116.5 25 94 49C71.5 73 68 103 68.5 115.5C69 128 84.3296 161.807 97.5 184.5Z" fill="#F71A9E"/>
<path d="M149.571 49C145.571 49 142.189 53.7039 141 60H217V49H149.571Z" fill="black"/>
<ellipse cx="175" cy="86.5" rx="23" ry="14.5" fill="black"/>
<ellipse cx="176" cy="73" rx="12" ry="6" fill="black"/>
<path d="M150 91C169.753 82.8818 181.385 83.1191 203 91" stroke="#F71A9E" stroke-width="6"/>
</svg>
